<mxfile host="app.diagrams.net" modified="2024-05-22T20:07:41.643Z" agent="Mozilla/5.0 (Windows NT 10.0; Win64; x64) AppleWebKit/537.36 (KHTML, like Gecko) Chrome/125.0.0.0 Safari/537.36" etag="u908mNZc1sOx8GUlGmpt" version="24.4.6" type="google">
  <diagram name="Страница — 1" id="_VrmGSZ611BU__h_fgvx">
    <mxGraphModel grid="1" page="1" gridSize="10" guides="1" tooltips="1" connect="1" arrows="1" fold="1" pageScale="1" pageWidth="827" pageHeight="1169" math="0" shadow="0">
      <root>
        <mxCell id="0" />
        <mxCell id="1" parent="0" />
        <mxCell id="XkxJI3gpHpTJ-rEmeUjM-1" value="Сторона&lt;div&gt;автошколы&lt;/div&gt;" style="shape=folder;fontStyle=1;spacingTop=10;tabWidth=40;tabHeight=14;tabPosition=left;html=1;whiteSpace=wrap;align=left;" vertex="1" parent="1">
          <mxGeometry x="90" y="240" width="250" height="520" as="geometry" />
        </mxCell>
        <mxCell id="XkxJI3gpHpTJ-rEmeUjM-2" value="Управление данными об учениках" style="shape=module;align=left;spacingLeft=20;align=center;verticalAlign=top;whiteSpace=wrap;html=1;" vertex="1" parent="1">
          <mxGeometry x="190" y="290" width="100" height="50" as="geometry" />
        </mxCell>
        <mxCell id="XkxJI3gpHpTJ-rEmeUjM-3" value="Сторона&lt;div&gt;ученика&lt;/div&gt;" style="shape=folder;fontStyle=1;spacingTop=10;tabWidth=40;tabHeight=14;tabPosition=left;html=1;whiteSpace=wrap;align=right;" vertex="1" parent="1">
          <mxGeometry x="480" y="350" width="170" height="200" as="geometry" />
        </mxCell>
        <mxCell id="XkxJI3gpHpTJ-rEmeUjM-6" value="Мониторинг и управление договорами учеников" style="shape=module;align=left;spacingLeft=20;align=center;verticalAlign=top;whiteSpace=wrap;html=1;" vertex="1" parent="1">
          <mxGeometry x="190" y="650" width="100" height="70" as="geometry" />
        </mxCell>
        <mxCell id="XkxJI3gpHpTJ-rEmeUjM-9" value="База данных договоров" style="shape=module;align=left;spacingLeft=20;align=center;verticalAlign=top;whiteSpace=wrap;html=1;" vertex="1" parent="1">
          <mxGeometry x="190" y="470" width="100" height="50" as="geometry" />
        </mxCell>
        <mxCell id="XkxJI3gpHpTJ-rEmeUjM-11" value="Управление группами" style="shape=module;align=left;spacingLeft=20;align=center;verticalAlign=top;whiteSpace=wrap;html=1;" vertex="1" parent="1">
          <mxGeometry x="190" y="380" width="100" height="50" as="geometry" />
        </mxCell>
        <mxCell id="XkxJI3gpHpTJ-rEmeUjM-12" value="Управление учебным планом" style="shape=module;align=left;spacingLeft=20;align=center;verticalAlign=top;whiteSpace=wrap;html=1;" vertex="1" parent="1">
          <mxGeometry x="190" y="560" width="100" height="50" as="geometry" />
        </mxCell>
        <mxCell id="XkxJI3gpHpTJ-rEmeUjM-13" value="Список курсов" style="shape=module;align=left;spacingLeft=20;align=center;verticalAlign=top;whiteSpace=wrap;html=1;" vertex="1" parent="1">
          <mxGeometry x="490" y="480" width="100" height="50" as="geometry" />
        </mxCell>
        <mxCell id="XkxJI3gpHpTJ-rEmeUjM-15" value="" style="endArrow=classic;html=1;rounded=0;dashed=1;entryX=0;entryY=0;entryDx=0;entryDy=15;entryPerimeter=0;" edge="1" parent="1" target="XkxJI3gpHpTJ-rEmeUjM-2">
          <mxGeometry width="50" height="50" relative="1" as="geometry">
            <mxPoint x="40" y="305" as="sourcePoint" />
            <mxPoint x="90" y="280" as="targetPoint" />
          </mxGeometry>
        </mxCell>
        <mxCell id="XkxJI3gpHpTJ-rEmeUjM-16" value="" style="endArrow=none;dashed=1;html=1;rounded=0;" edge="1" parent="1">
          <mxGeometry width="50" height="50" relative="1" as="geometry">
            <mxPoint x="40" y="660" as="sourcePoint" />
            <mxPoint x="40" y="310" as="targetPoint" />
          </mxGeometry>
        </mxCell>
        <mxCell id="XkxJI3gpHpTJ-rEmeUjM-17" value="" style="endArrow=classic;html=1;rounded=0;dashed=1;entryX=0;entryY=0;entryDx=0;entryDy=15;entryPerimeter=0;" edge="1" parent="1" target="XkxJI3gpHpTJ-rEmeUjM-11">
          <mxGeometry width="50" height="50" relative="1" as="geometry">
            <mxPoint x="40" y="395" as="sourcePoint" />
            <mxPoint x="170" y="400" as="targetPoint" />
          </mxGeometry>
        </mxCell>
        <mxCell id="XkxJI3gpHpTJ-rEmeUjM-18" value="" style="endArrow=classic;html=1;rounded=0;dashed=1;entryX=0;entryY=0;entryDx=0;entryDy=15;entryPerimeter=0;" edge="1" parent="1" target="XkxJI3gpHpTJ-rEmeUjM-12">
          <mxGeometry width="50" height="50" relative="1" as="geometry">
            <mxPoint x="40" y="575" as="sourcePoint" />
            <mxPoint x="170" y="580" as="targetPoint" />
          </mxGeometry>
        </mxCell>
        <mxCell id="XkxJI3gpHpTJ-rEmeUjM-20" value="" style="endArrow=none;dashed=1;html=1;rounded=0;entryX=0;entryY=0;entryDx=0;entryDy=15;entryPerimeter=0;" edge="1" parent="1" target="XkxJI3gpHpTJ-rEmeUjM-6">
          <mxGeometry width="50" height="50" relative="1" as="geometry">
            <mxPoint x="40" y="665" as="sourcePoint" />
            <mxPoint x="80" y="700" as="targetPoint" />
          </mxGeometry>
        </mxCell>
        <mxCell id="XkxJI3gpHpTJ-rEmeUjM-21" value="" style="endArrow=classic;html=1;rounded=0;entryX=0;entryY=0;entryDx=0;entryDy=15;entryPerimeter=0;dashed=1;" edge="1" parent="1" target="XkxJI3gpHpTJ-rEmeUjM-9">
          <mxGeometry width="50" height="50" relative="1" as="geometry">
            <mxPoint x="40" y="485" as="sourcePoint" />
            <mxPoint x="40" y="480" as="targetPoint" />
          </mxGeometry>
        </mxCell>
        <mxCell id="XkxJI3gpHpTJ-rEmeUjM-22" value="" style="endArrow=classic;html=1;rounded=0;entryX=1.006;entryY=0.502;entryDx=0;entryDy=0;entryPerimeter=0;dashed=1;" edge="1" parent="1" target="XkxJI3gpHpTJ-rEmeUjM-3">
          <mxGeometry width="50" height="50" relative="1" as="geometry">
            <mxPoint x="720" y="450" as="sourcePoint" />
            <mxPoint x="750" y="450" as="targetPoint" />
          </mxGeometry>
        </mxCell>
        <mxCell id="XkxJI3gpHpTJ-rEmeUjM-23" value="" style="endArrow=none;dashed=1;html=1;rounded=0;" edge="1" parent="1">
          <mxGeometry width="50" height="50" relative="1" as="geometry">
            <mxPoint x="720" y="685" as="sourcePoint" />
            <mxPoint x="720" y="450" as="targetPoint" />
          </mxGeometry>
        </mxCell>
        <mxCell id="XkxJI3gpHpTJ-rEmeUjM-24" value="" style="endArrow=none;dashed=1;html=1;rounded=0;exitX=1;exitY=0.5;exitDx=0;exitDy=0;" edge="1" parent="1" source="XkxJI3gpHpTJ-rEmeUjM-6">
          <mxGeometry width="50" height="50" relative="1" as="geometry">
            <mxPoint x="500" y="800" as="sourcePoint" />
            <mxPoint x="720" y="685" as="targetPoint" />
          </mxGeometry>
        </mxCell>
        <mxCell id="XkxJI3gpHpTJ-rEmeUjM-25" value="" style="endArrow=classic;html=1;rounded=0;entryX=1;entryY=0.409;entryDx=0;entryDy=0;entryPerimeter=0;" edge="1" parent="1" target="XkxJI3gpHpTJ-rEmeUjM-2">
          <mxGeometry width="50" height="50" relative="1" as="geometry">
            <mxPoint x="360" y="310" as="sourcePoint" />
            <mxPoint x="440" y="510" as="targetPoint" />
          </mxGeometry>
        </mxCell>
        <mxCell id="XkxJI3gpHpTJ-rEmeUjM-26" value="" style="endArrow=classic;html=1;rounded=0;entryX=1;entryY=0.5;entryDx=0;entryDy=0;" edge="1" parent="1" target="XkxJI3gpHpTJ-rEmeUjM-11">
          <mxGeometry width="50" height="50" relative="1" as="geometry">
            <mxPoint x="360" y="405" as="sourcePoint" />
            <mxPoint x="390" y="400" as="targetPoint" />
          </mxGeometry>
        </mxCell>
        <mxCell id="XkxJI3gpHpTJ-rEmeUjM-27" value="" style="endArrow=classic;html=1;rounded=0;entryX=1;entryY=0.5;entryDx=0;entryDy=0;" edge="1" parent="1" target="XkxJI3gpHpTJ-rEmeUjM-9">
          <mxGeometry width="50" height="50" relative="1" as="geometry">
            <mxPoint x="360" y="495" as="sourcePoint" />
            <mxPoint x="410" y="480" as="targetPoint" />
          </mxGeometry>
        </mxCell>
        <mxCell id="XkxJI3gpHpTJ-rEmeUjM-28" value="" style="endArrow=classic;html=1;rounded=0;entryX=1.004;entryY=0.608;entryDx=0;entryDy=0;entryPerimeter=0;" edge="1" parent="1" target="XkxJI3gpHpTJ-rEmeUjM-12">
          <mxGeometry width="50" height="50" relative="1" as="geometry">
            <mxPoint x="360" y="585" as="sourcePoint" />
            <mxPoint x="400" y="580" as="targetPoint" />
            <Array as="points">
              <mxPoint x="360" y="590" />
            </Array>
          </mxGeometry>
        </mxCell>
        <mxCell id="XkxJI3gpHpTJ-rEmeUjM-29" value="" style="endArrow=none;html=1;rounded=0;" edge="1" parent="1">
          <mxGeometry width="50" height="50" relative="1" as="geometry">
            <mxPoint x="360" y="590" as="sourcePoint" />
            <mxPoint x="360" y="310" as="targetPoint" />
          </mxGeometry>
        </mxCell>
        <mxCell id="XkxJI3gpHpTJ-rEmeUjM-33" value="" style="rounded=0;orthogonalLoop=1;jettySize=auto;html=1;endArrow=halfCircle;endFill=0;endSize=6;strokeWidth=1;sketch=0;" edge="1" parent="1" target="XkxJI3gpHpTJ-rEmeUjM-35">
          <mxGeometry relative="1" as="geometry">
            <mxPoint x="420" y="455" as="sourcePoint" />
          </mxGeometry>
        </mxCell>
        <mxCell id="XkxJI3gpHpTJ-rEmeUjM-34" value="" style="rounded=0;orthogonalLoop=1;jettySize=auto;html=1;endArrow=oval;endFill=0;sketch=0;sourcePerimeterSpacing=0;targetPerimeterSpacing=0;endSize=10;" edge="1" parent="1" target="XkxJI3gpHpTJ-rEmeUjM-35">
          <mxGeometry relative="1" as="geometry">
            <mxPoint x="360" y="455" as="sourcePoint" />
          </mxGeometry>
        </mxCell>
        <mxCell id="XkxJI3gpHpTJ-rEmeUjM-35" value="" style="ellipse;whiteSpace=wrap;html=1;align=center;aspect=fixed;fillColor=none;strokeColor=none;resizable=0;perimeter=centerPerimeter;rotatable=0;allowArrows=0;points=[];outlineConnect=1;" vertex="1" parent="1">
          <mxGeometry x="395" y="450" width="10" height="10" as="geometry" />
        </mxCell>
        <mxCell id="XkxJI3gpHpTJ-rEmeUjM-37" value="" style="shape=requiredInterface;html=1;verticalLabelPosition=bottom;sketch=0;" vertex="1" parent="1">
          <mxGeometry x="400" y="445" width="10" height="20" as="geometry" />
        </mxCell>
        <mxCell id="XkxJI3gpHpTJ-rEmeUjM-40" value="" style="rounded=0;orthogonalLoop=1;jettySize=auto;html=1;endArrow=halfCircle;endFill=0;endSize=6;strokeWidth=1;sketch=0;exitX=0.003;exitY=0.524;exitDx=0;exitDy=0;exitPerimeter=0;" edge="1" parent="1" source="XkxJI3gpHpTJ-rEmeUjM-3" target="XkxJI3gpHpTJ-rEmeUjM-42">
          <mxGeometry relative="1" as="geometry">
            <mxPoint x="460" y="455" as="sourcePoint" />
          </mxGeometry>
        </mxCell>
        <mxCell id="XkxJI3gpHpTJ-rEmeUjM-41" value="" style="rounded=0;orthogonalLoop=1;jettySize=auto;html=1;endArrow=oval;endFill=0;sketch=0;sourcePerimeterSpacing=0;targetPerimeterSpacing=0;endSize=10;" edge="1" parent="1" target="XkxJI3gpHpTJ-rEmeUjM-42">
          <mxGeometry relative="1" as="geometry">
            <mxPoint x="420" y="455" as="sourcePoint" />
          </mxGeometry>
        </mxCell>
        <mxCell id="XkxJI3gpHpTJ-rEmeUjM-42" value="" style="ellipse;whiteSpace=wrap;html=1;align=center;aspect=fixed;fillColor=none;strokeColor=none;resizable=0;perimeter=centerPerimeter;rotatable=0;allowArrows=0;points=[];outlineConnect=1;" vertex="1" parent="1">
          <mxGeometry x="435" y="450" width="10" height="10" as="geometry" />
        </mxCell>
        <mxCell id="XkxJI3gpHpTJ-rEmeUjM-44" value="Веб-интерфейс" style="shape=module;align=left;spacingLeft=20;align=center;verticalAlign=top;whiteSpace=wrap;html=1;" vertex="1" parent="1">
          <mxGeometry x="490" y="390" width="100" height="50" as="geometry" />
        </mxCell>
        <mxCell id="XkxJI3gpHpTJ-rEmeUjM-45" value="&lt;font style=&quot;font-size: 15px;&quot;&gt;&amp;lt;&amp;lt;ApplicationServer&amp;gt;&amp;gt;&lt;/font&gt;&lt;div style=&quot;font-size: 15px;&quot;&gt;&lt;font style=&quot;font-size: 15px;&quot;&gt;АдминистрированиеАвтошколы&lt;/font&gt;&lt;/div&gt;" style="verticalAlign=top;align=center;spacingTop=8;spacingLeft=2;spacingRight=12;shape=cube;size=10;direction=south;fontStyle=4;html=1;whiteSpace=wrap;" vertex="1" parent="1">
          <mxGeometry x="850" y="20" width="320" height="570" as="geometry" />
        </mxCell>
        <mxCell id="XkxJI3gpHpTJ-rEmeUjM-46" value="Курсы" style="html=1;dropTarget=0;whiteSpace=wrap;" vertex="1" parent="1">
          <mxGeometry x="950" y="100" width="120" height="70" as="geometry" />
        </mxCell>
        <mxCell id="XkxJI3gpHpTJ-rEmeUjM-47" value="" style="shape=module;jettyWidth=8;jettyHeight=4;" vertex="1" parent="XkxJI3gpHpTJ-rEmeUjM-46">
          <mxGeometry x="1" width="20" height="20" relative="1" as="geometry">
            <mxPoint x="-27" y="7" as="offset" />
          </mxGeometry>
        </mxCell>
        <mxCell id="XkxJI3gpHpTJ-rEmeUjM-48" value="Сотрудники" style="html=1;dropTarget=0;whiteSpace=wrap;" vertex="1" parent="1">
          <mxGeometry x="950" y="220" width="120" height="80" as="geometry" />
        </mxCell>
        <mxCell id="XkxJI3gpHpTJ-rEmeUjM-49" value="" style="shape=module;jettyWidth=8;jettyHeight=4;" vertex="1" parent="XkxJI3gpHpTJ-rEmeUjM-48">
          <mxGeometry x="1" width="20" height="20" relative="1" as="geometry">
            <mxPoint x="-27" y="7" as="offset" />
          </mxGeometry>
        </mxCell>
        <mxCell id="XkxJI3gpHpTJ-rEmeUjM-50" value="Аккаунты" style="html=1;dropTarget=0;whiteSpace=wrap;" vertex="1" parent="1">
          <mxGeometry x="950" y="470" width="120" height="80" as="geometry" />
        </mxCell>
        <mxCell id="XkxJI3gpHpTJ-rEmeUjM-51" value="" style="shape=module;jettyWidth=8;jettyHeight=4;" vertex="1" parent="XkxJI3gpHpTJ-rEmeUjM-50">
          <mxGeometry x="1" width="20" height="20" relative="1" as="geometry">
            <mxPoint x="-27" y="7" as="offset" />
          </mxGeometry>
        </mxCell>
        <mxCell id="XkxJI3gpHpTJ-rEmeUjM-54" value="Группы" style="html=1;dropTarget=0;whiteSpace=wrap;" vertex="1" parent="1">
          <mxGeometry x="950" y="350" width="120" height="80" as="geometry" />
        </mxCell>
        <mxCell id="XkxJI3gpHpTJ-rEmeUjM-55" value="" style="shape=module;jettyWidth=8;jettyHeight=4;" vertex="1" parent="XkxJI3gpHpTJ-rEmeUjM-54">
          <mxGeometry x="1" width="20" height="20" relative="1" as="geometry">
            <mxPoint x="-27" y="7" as="offset" />
          </mxGeometry>
        </mxCell>
        <mxCell id="XkxJI3gpHpTJ-rEmeUjM-56" value="Сервер БД" style="verticalAlign=top;align=center;spacingTop=8;spacingLeft=2;spacingRight=12;shape=cube;size=10;direction=south;fontStyle=4;html=1;whiteSpace=wrap;" vertex="1" parent="1">
          <mxGeometry x="1260" y="255" width="130" height="80" as="geometry" />
        </mxCell>
        <mxCell id="XkxJI3gpHpTJ-rEmeUjM-57" value="" style="endArrow=none;html=1;rounded=0;entryX=0;entryY=0;entryDx=280;entryDy=0;entryPerimeter=0;exitX=0;exitY=0;exitDx=45;exitDy=130;exitPerimeter=0;" edge="1" parent="1" source="XkxJI3gpHpTJ-rEmeUjM-56" target="XkxJI3gpHpTJ-rEmeUjM-45">
          <mxGeometry width="50" height="50" relative="1" as="geometry">
            <mxPoint x="1300" y="470" as="sourcePoint" />
            <mxPoint x="1350" y="420" as="targetPoint" />
          </mxGeometry>
        </mxCell>
        <mxCell id="XkxJI3gpHpTJ-rEmeUjM-58" value="https" style="text;html=1;align=center;verticalAlign=middle;whiteSpace=wrap;rounded=0;" vertex="1" parent="1">
          <mxGeometry x="1200" y="270" width="60" height="30" as="geometry" />
        </mxCell>
      </root>
    </mxGraphModel>
  </diagram>
</mxfile>
